<?xml version="1.0" encoding="UTF-8"?>
<!DOCTYPE svg PUBLIC "-//W3C//DTD SVG 1.1//EN" "http://www.w3.org/Graphics/SVG/1.1/DTD/svg11.dtd">
<!-- Creator: CorelDRAW 2019 (64-Bit) -->
<svg xmlns="http://www.w3.org/2000/svg" xml:space="preserve" width="30.4038mm" height="24.2122mm" version="1.1" style="shape-rendering:geometricPrecision; text-rendering:geometricPrecision; image-rendering:optimizeQuality; fill-rule:evenodd; clip-rule:evenodd"
viewBox="0 0 20329.69 16189.64"
 xmlns:xlink="http://www.w3.org/1999/xlink"
 xmlns:xodm="http://www.corel.com/coreldraw/odm/2003">
 <defs>
  <style type="text/css">
   <![CDATA[
    .str0 {stroke:#EFECFF;stroke-width:283.04;stroke-miterlimit:22.9256}
    .fil0 {fill:#EFECFF}
   ]]>
  </style>
 </defs>
 <g id="Слой_x0020_1">
  <metadata id="CorelCorpID_0Corel-Layer"/>
  <path class="fil0 str0" d="M4749.26 15039.42l12360.24 -12360.24c221.06,-221.06 579.52,-221.06 800.65,0l2112.15 2112.22c221.12,221.06 221.12,579.59 0,800.65l-7346.59 7346.59 2209.37 2140.64c223.6,216.78 229.28,573.84 12.5,797.44 -111,114.47 -258.77,171.78 -406.54,171.44l-9343 -43.93c-311.66,-0.87 -563.74,-254.42 -562.94,-566.08 0.47,-155.33 63.59,-295.75 165.43,-397.52l-1.27 -1.2z"/>
  <path class="fil0 str0" d="M15580.43 1150.29l-12360.18 12360.18c-221.06,221.06 -579.59,221.06 -800.65,0l-2112.22 -2112.22c-221.06,-221.06 -221.06,-579.59 0,-800.65l7346.59 -7346.59 -2209.31 -2140.64c-223.6,-216.78 -229.28,-573.84 -12.5,-797.44 111,-114.41 258.7,-171.78 406.54,-171.44l9343 43.93c311.66,0.87 563.74,254.42 562.87,566.08 -0.4,155.33 -63.59,295.75 -165.36,397.52l1.2 1.27z"/>
 </g>
</svg>
